<?xml version="1.0" encoding="UTF-8"?>
<svg width="100pt" height="100pt" version="1.1" viewBox="0 0 100 100" xmlns="http://www.w3.org/2000/svg">
 <path d="m43.582 29.168c0.050781-2.5859 1.6484-4.8867 4.0469-5.8398 2.4023-0.95312 5.1406-0.375 6.9492 1.4688 1.8125 1.8477 2.3359 4.5977 1.3359 6.9766-1 2.3828-3.332 3.9336-5.9141 3.9336-1.7227 0-3.375-0.69141-4.582-1.9219-1.207-1.2305-1.8672-2.8945-1.8359-4.6172zm11.293 9.25h-9.75c-3 0.023437-5.418 2.457-5.418 5.457v15.125c0 2.8516 2.3164 5.168 5.168 5.168v7.707c0 2.832 2.293 5.125 5.125 5.125s5.125-2.293 5.125-5.125v-7.582c2.8516 0 5.168-2.3164 5.168-5.168v-15.125c0-3-2.418-5.4336-5.418-5.457zm36.793 11.582c0 11.051-4.3906 21.648-12.207 29.461-7.8125 7.8164-18.41 12.207-29.461 12.207s-21.648-4.3906-29.461-12.207c-7.8164-7.8125-12.207-18.41-12.207-29.461s4.3906-21.648 12.207-29.461c7.8125-7.8164 18.41-12.207 29.461-12.207s21.648 4.3906 29.461 12.207c7.8164 7.8125 12.207 18.41 12.207 29.461zm-5.832 0h-0.003907c0-9.5039-3.7734-18.617-10.492-25.34-6.7227-6.7188-15.836-10.492-25.34-10.492s-18.617 3.7734-25.34 10.492c-6.7188 6.7227-10.492 15.836-10.492 25.34s3.7734 18.617 10.492 25.34c6.7227 6.7188 15.836 10.492 25.34 10.492 9.5-0.007812 18.609-3.7891 25.324-10.508 6.7188-6.7148 10.5-15.824 10.508-25.324z"/>
</svg>
